# xmcd
#
# Track frame offsets:
#	150
#	18263
#	30278
#	45647
#	59499
#	77534
#	91965
#	109961
#	123018
#	142026
#	155647
#	171256
#	187937
#	201790
#	215041
#	228291
#	242587
#	257578
#	271378
#	290053
#
# Disc length: 4088 seconds
#
# Revision: 1
# Processed by: cddbd v1.5.2PL0 Copyright (c) Steve Scherf et al.
# Submitted via: audiograbber 1.82.02
#
DISCID=160ff614
DTITLE=Various Artist  - Country Radio - June 2016
DYEAR=2016
DGENRE=Country
TTITLE0=Alabama - Come Find Me
TTITLE1=Blake Shelton - Savior's Shadow
TTITLE2=Easton Corbin - Are You With Me (Radio Mix)
TTITLE3=Zac Brown Band - Castaway
TTITLE4=Chris Janson - Holdin' Her
TTITLE5=Jason Aldean - Lights Come On
TTITLE6=Craig Campbell - Outskirts Of Heaven
TTITLE7=Michael Ray - Think A Little Less
TTITLE8=Aaron Watson - Bluebonnets (Julia's Song)
TTITLE9=Hillbilly Vegas - Shake It Like A Hillbilly
TTITLE10=Matt Cline (Ft. Ray Stevens, Steve Cropper, Buddy Jewell and Andy Griggs
TTITLE10=) - If You Want My Vote
TTITLE11=Keith Urban - Wasted Time
TTITLE12=Lauren Lizabeth - To Be Young
TTITLE13=Charles Kelley - Lonely Girl
TTITLE14=Lavendine - Boomerang
TTITLE15=Carrie Underwood - Church Bells
TTITLE16=Kenny Chesney - Noise
TTITLE17=Tegan Marie - Lucky Me
TTITLE18=Chris Stapleton - Parachute
TTITLE19=Mary Chapin Carpenter - Something Tamed Something Wild
EXTD=
EXTT0=
EXTT1=
EXTT2=
EXTT3=
EXTT4=
EXTT5=
EXTT6=
EXTT7=
EXTT8=
EXTT9=
EXTT10=
EXTT11=
EXTT12=
EXTT13=
EXTT14=
EXTT15=
EXTT16=
EXTT17=
EXTT18=
EXTT19=
PLAYORDER=
